<?xml version="1.0" encoding="UTF-8"?><svg id="a" xmlns="http://www.w3.org/2000/svg" viewBox="0 0 800 600.7"><path d="M564.5,264.15c-7.55,7.26-17.1,11.67-27.49,13.85-12.74,2.67-25.64,4.58-38.5,6.59-12.9,2.02-25.68,4.35-37.61,10.02-23.97,11.4-36.19,31.24-40.78,56.55-1.02,5.62-1.54,11.32-2.33,17.25,8.06-6.34,15.27-12.96,23.38-18.21,22.94-14.86,46.06-29.48,69.48-43.55,15.69-9.43,36.05-15.4,49.11-15.94-2.25,18.26-33.6,38.29-49.75,32.65,9.47-7.56,19.33-15.44,29.18-23.31-.31-.45-.62-.9-.93-1.35-.95,.5-1.96,.91-2.84,1.51-12.34,8.36-24.7,16.71-36.97,25.17-1.39,.96-2.3,2.63-3.43,3.98,1.9,.75,3.77,2.04,5.71,2.16,16.51,.95,32.43-2.35,48.13-7.1,21.33-6.45,42.93-11.37,65.39-11.27,2.49,.01,4.98,.04,7.46,.14,.37,.01,.72,.45,1.45,.94-26.91,3.65-51.67,13.06-76.3,22.9-6.01,2.4-6.51,4.45-1.68,8.87,20.63,18.81,44.14,30.56,72.91,28.3,6.41-.51,12.72-2.2,19.94-3.51-14.55,10.57-30.38,13.84-47.62,13.92,6.03,11.74,11.93,23.23,17.83,34.72l-1.25,.8c-3.71-4.66-7.58-9.22-11.11-14.02-4.96-6.77-9.59-13.78-14.53-20.55-1-1.37-2.68-2.43-4.25-3.17-10.9-5.15-22.25-9.48-32.68-15.43-11.54-6.58-23.21-11.93-36.64-12.26-30.69-.77-52.91,13.4-67.97,39.44-9.02,15.6-11.87,32.89-12.12,50.65-.32,23.11,3.39,45.82,6.74,68.59,3.38,23,11.11,24.37,28.49,28.28,7.8,1.76,15.42,4.62,22.85,7.66,3.9,1.59,8.73,4.14,7.9,9.23-.82,5.05-6.28,5.16-10.21,5.39-7.56,.45-15.24,.65-22.75-.17-12.32-1.35-24.63-3.17-36.79-5.58-10.07-1.99-18.47-7.2-24.1-16.76-10.22,15.99-26.92,18.18-43.43,20.57-7.99,1.15-16.05,2.18-24.11,2.45-5.98,.2-12.12-.35-17.98-1.58-6.05-1.27-7.19-6.3-1.97-9.49,6.66-4.07,14.11-6.94,21.42-9.84,4.44-1.76,9.26-2.53,13.88-3.85,9.48-2.7,14.29-8.37,15.37-18.2,1.97-17.91,3.56-35.87,5.89-53.73,2.84-21.78-3.22-41.11-16.16-58.15-16.95-22.31-39.46-35.24-67.95-36.08-10.71-.32-20.81,2.73-30.42,7.62-9.66,4.92-19.43,9.66-29.39,13.94-3.9,1.68-8.4,2.29-12.69,2.68-9.85,.91-19.78,1.23-28.93,5.79,5.79-3.99,11.57-7.99,17.86-12.33-12.3-11.98-26.24-18.38-42.81-19.2,13.88-2.73,27.41-2.81,40.28,3.91,1.38,.72,2.89,1.27,4.1,2.21,10.36,7.99,21.06,7.4,31.63,.85,9.61-5.96,19.12-12.14,28.22-18.84,5.2-3.83,4.9-7.21-1.28-10.07-9.51-4.4-19.32-8.55-29.43-11.16-25.7-6.62-51.16-3.68-76.24,4.04-.72,.22-1.47,.31-2.71-.24,1.3-1.11,2.54-2.31,3.91-3.33,28.77-21.49,60.29-23.46,92.73-11.09,21.98,8.38,43.02,19.22,64.6,28.69,6.5,2.85,13.37,4.89,20.14,7.07,1.58,.51,3.47,.08,6.06,.08-1.23-2.83-1.93-4.84-2.93-6.69-15.43-28.57-37.87-49.74-67.26-63.54-8-3.76-16.24-7.1-23.93-11.41-6.33-3.55-12.02-8.25-17.61-13,22.64,8.64,46.47,13.87,67.24,26.8,27.64,17.21,48.21,40.91,64.24,68.88,5.19,9.05,10.51,17.95,19.99,25.41-.43-5.71-.71-10.37-1.14-15.01-.93-9.9-.95-20.02-3.19-29.62-2.08-8.91-5.11-18.29-10.28-25.68-17.17-24.57-34.62-49.04-53.61-72.2-18.65-22.74-48.41-29.12-76.25-19.02-1.25,.45-2.55,.8-4.44,1.39,9.12-8.27,20.29-12.33,39.72-14.48-3.01-13.86-6-27.65-8.99-41.43l1.17-.37c3.97,10.92,8.27,21.74,11.77,32.81,1.94,6.15,4.15,9.58,11.55,11.01,21.64,4.18,37.66,17.53,50.53,34.96,6.83,9.25,13.7,18.48,20.58,27.7,.74,.99,1.54,2.06,2.57,2.68,1.2,.72,3.3,1.77,3.88,1.29,1.08-.89,2.12-2.96,1.81-4.21-1.13-4.64-2.3-9.39-4.36-13.66-15.37-32.02-30.93-63.95-46.49-95.88-5.61-11.51-11.36-22.95-16.76-34.62,17.44,18.25,29.99,39.88,43.02,62.91,3.6-29.07,10.8-55.91,22.7-81.6-.29,3.21-.54,6.42-.89,9.62-.37,3.4-.79,6.79-1.25,10.18-2.48,17.99-5.29,35.94-7.38,53.98-1.82,15.65,.64,30.64,8.91,44.44,4.28,7.14,8.15,14.52,12.95,23.13,5.39-24.75,18.52-43.46,34.7-60.55-2.14,5.19-4.24,10.4-6.41,15.58-4.61,11-9.78,21.8-13.7,33.04-2.8,8.02-2.96,16.62-.15,26.27,1.93-2.74,3.43-4.45,4.48-6.4,9.25-17.23,18.66-34.38,27.55-51.8,10.07-19.73,12.82-40.99,9.6-62.59-2.18-14.63-6.78-28.89-10.31-43.31-.28-1.15-.62-2.29-.61-3.53,18.6,24.5,25.68,52.48,24.94,83.1,20.42-18.73,36.54-39.64,39.77-69.18,3.38,8.65,3.47,16.54,1.69,24.48-3.72,16.56-12.68,30.42-23.77,42.73-26.2,29.09-42.76,63.42-55.58,99.85-1.77,5.03-2.15,10.62-2.57,15.99-.14,1.77,1.21,4.32,2.69,5.3,.87,.57,3.83-.8,4.98-2.09,7.45-8.36,14.7-16.9,21.95-25.43,19.52-22.94,40.99-43.49,69.05-55.82,28.61-12.56,57.68-15.53,87.24-3.4,5.15,2.11,10.04,4.86,15.03,7.35,.51,.25,.89,.77,1.42,1.78-57.99-14.91-104.67,3.05-142.08,48.43,16.48-2.12,33-3.99,49.43-6.44,16.35-2.44,32.62-5.45,48.87-8.21Zm-191.13,157.44c.61,1.35,1.22,2.69,1.84,4.04,5.45,11.9,8.61,24.27,7.23,37.46-2.09,20.06-4.46,40.1-6.37,60.17-.67,7.05-3.56,12.39-9.28,16.33-3.12,2.15-6.3,4.19-9.46,6.28,.18,.45,.37,.91,.55,1.36,6.46-2.36,13.06-4.39,19.33-7.17,4.91-2.18,7.22-6.65,7.44-12.02,.66-15.83,1.55-31.66,1.81-47.5,.17-10.81,.17-21.73-1.14-32.43-1.19-9.76-5.51-18.74-11.96-26.52Z"/><path d="M325.86,296.22c-19.74-7.95-39.87-13.96-50.17-34.26-2.39-4.71-3.91-9.86-5.96-15.17,9.7-2.55,18.06-1.4,26.16,1.53,15.19,5.5,25.98,14.81,27.33,32.24,.39,5.02,1.66,9.98,2.64,15.66Z"/><path d="M644.29,344.64c-18.02,18.12-44.99,14.34-70.86-1.63,22.26-23.39,48.47-23.4,70.86,1.63Z"/><path d="M207.61,164.05c14.37-5.72,27.54-5.37,39.93,2.53,14.47,9.22,14.75,24.35,15.72,39.08-.7,.2-1.07,.43-1.28,.34-9.42-4.3-18.89-8.48-28.21-12.99-12.34-5.98-19.7-16.56-26.17-28.96Z"/><path d="M641.53,283.41c-9.09,11.46-20.13,17.86-34.99,17.2-10.92-.48-21.88-.09-32.7-.09,10.46-32.28,39.3-36.58,67.69-17.11Zm-63.35,11.81c10.95-3.18,21.6-6.28,32.11-9.33-11.4,.31-22.62,1.71-32.11,9.33Z"/><path d="M533.37,418.79c-16.82-2.43-32.72-16.4-35.47-31.96-1.42-8.04-2.59-16.13-3.85-24.04,18.61,1.58,34.12,12.88,35.52,30.09,.71,8.71,2.51,17.33,3.8,25.9Z"/><path d="M579.94,427.17c-23.33-1.13-37.51-10.21-39.29-32.92-.48-6.14-1.86-12.21-2.84-18.4,25.58,4.55,41.59,24.02,42.13,51.32Z"/><path d="M554.95,157.11c-7.31,13.98-17.79,21.9-33.96,21.1-8.62-.43-17.28-.08-26.07-.08,8.05-29.36,30.95-35.56,60.04-21.02Z"/><path d="M636.47,231.15c.09,.9,.34,2.22,.32,3.53-.28,15.62-12.92,29.58-28.36,31.21-8.94,.95-17.9,1.7-26.86,2.54,.03-13.22,13.51-29.41,27.17-32.29,9.04-1.91,18.19-3.29,27.73-4.99Zm-13.5,17.02c-15.85,2.23-26.13,6.48-30.7,12.22,10.4-4.14,20.55-8.18,30.7-12.22Z"/><path d="M459.45,226.01c1.38-27.89,13.85-41.95,39.94-46.74,1.31-.24,3.87,.83,4.26,1.88,3.72,10.03-.81,24.93-9.21,31.79-7.76,6.34-16.81,9.75-26.44,11.86-2.66,.58-5.41,.78-8.55,1.21Zm35.13-33.35c-9.34,9.89-22.83,15.17-30.65,26.79,13.16-5.56,23.3-14.58,30.65-26.79Z"/><path d="M232.17,294.19c21.89-3.18,45.75,8.7,60.37,29.5-9.53,1.31-18.78,3.39-28.09,3.67-11.09,.33-18.98-6.42-24.5-15.35-3.32-5.37-5.16-11.66-7.78-17.82Z"/><path d="M176.87,346.44c25.1-9.61,45.65,.16,65.84,13.61-12,9.43-25.22,14.25-40.27,10.32-12.6-3.29-21.34-11.42-25.57-23.93Zm39.95,12.07c-10.87-3.73-22.01-7.55-33.15-11.37l-.4,1.29c10.1,7.09,21.65,9.5,33.56,10.08Z"/><path d="M338.53,163.32c-11.32-10.54-21.26-20.95-20.28-37.13,.81-13.3,7.43-23.32,19.22-30.88,13.21,22.52,7.29,44.78,1.05,68.01Zm-3.88-12.23v-41.55c-4.88,14.75-4.38,28.2,0,41.55Z"/><path d="M330.92,227c-10.85-3.87-21.75-7.24-32.22-11.65-8.95-3.77-15.56-10.51-19.71-19.51-1.78-3.87-1.02-6.46,2.9-8.23,8.49-3.83,17.05-4.32,25.63-.52,13.49,5.98,24.9,25.21,23.4,39.9Zm-9.4-12.82c-7.2-11.02-29.19-23.02-38.94-20.33,13.44,7.02,26.63,13.91,38.94,20.33Z"/><path d="M399.06,151.14c3.92,14.52,3.11,27.87-6.23,40.03-5.36,6.98-10.45,14.18-15.72,21.37-13.48-20.85-11.35-53.77,21.95-61.4Zm-21.09,48.05c5-11.11,9.89-21.96,14.78-32.82-8.45,9.43-13.49,20.33-14.78,32.82Z"/><path d="M511.56,260.79c7.37-9.45,12.83-18.83,23.36-22.07,5.44-1.68,11.61-1.77,17.37-1.41,6.59,.41,13.09,2.11,20.64,3.42-1.53,3.12-2.71,6.41-4.61,9.22-5.5,8.14-13.02,13.69-23.11,13.47-10.8-.24-21.57-1.63-33.66-2.62Z"/><path d="M506.82,150.34c7.62-30.68,19.5-39.51,42.94-44.11,.02,9.51,.95,19.23-4,27.59-2.49,4.21-7.07,8.29-11.61,9.94-8.46,3.08-17.58,4.34-27.34,6.57Z"/><path d="M184.83,397.04c-13.13,7.17-26.92,11.05-41.79,5.22-10.99-4.32-17.28-12.89-20.06-25.02,8.95,0,17.32-.36,25.64,.11,7.16,.41,13.09,4.29,18.87,8.35,5.54,3.89,11.32,7.44,17.34,11.35Z"/><path d="M293.63,376.81c.32,12.66-11.35,30.4-23.8,35.62-10.64,4.46-24.89,2.07-32.29-5.67,6.45-9.36,13.4-18.05,25.19-21.25,10.37-2.82,20.69-5.81,30.9-8.69Zm-43.96,28.41c13.13-1.62,25.06-6.19,33.89-16.85-11.34,5.64-22.72,11.3-33.89,16.85Z"/><path d="M368.75,149.26c2.22-9.45,3.95-18.67,6.65-27.6,1.69-5.56,6.45-8.98,11.81-11.21,7.53-3.14,15.08-6.25,22.62-9.37,6.47,16.82-17.05,45.39-41.09,48.18Z"/><path d="M380.82,104.07c-10.15-1.94-19.85-2.8-28.87-5.74-12.21-3.98-17.37-14.83-22.12-25.92,28.11-7.25,40.88,.65,50.99,31.66Z"/><path d="M167.6,282.64c21.45-4.06,39.79,6.27,54.22,30.72-13.6-2.09-27.52,2.78-39.58-6.15-8.32-6.16-12.06-14.94-14.64-24.57Z"/><path d="M167.64,258.25c31.75-9.66,42.46-2.15,56.98,22.49-10.14,0-20.01,.77-29.71-.19-13.62-1.34-20.94-11.25-27.27-22.31Z"/><path d="M207.04,408.08c-4.2,21.18-18.86,34.96-43.56,35.25-2.26-16.22,4.8-29.88,20.64-32.49,6.12-1.01,12.27-1.88,18.42-2.73,1.36-.19,2.77-.03,4.49-.03Z"/><path d="M548.45,205.2c3.94-17.26,15.29-26.58,32.15-27.16,7.05-.24,14.08-1.04,21.14-1.58,.84,10.93-11.72,25.84-24.13,27.77-2.75,.43-5.53,.88-8.3,.93-6.82,.13-13.64,.04-20.85,.04Zm7.59-4.12c8.33-3.48,16.66-6.96,24.99-10.44-9.74,.36-18.3,3.53-24.99,10.44Z"/><path d="M681.36,347.54c1.94,12-.42,22.21-10.41,29.57-9.44,6.95-19.98,8.07-31.22,5.64,3.8-22.56,14.91-35.54,41.63-35.21Zm-6.14,9.11c-10.66,7.21-20.93,14.15-31.2,21.09,.35,.48,.69,.97,1.04,1.45,12.36-4.2,22.44-11.53,30.16-22.54Z"/><path d="M601.92,393.84c14.27,2.34,28.77,1.35,39.58,11.78,4,3.86,6.6,9.21,9.72,13.95,1.58,2.4,.47,4-1.89,5.14-9.03,4.37-18.08,4.61-26.69-.71-11.02-6.81-16.48-17.6-20.71-30.17Zm12.5,10.38c6.8,8.6,24.68,16.71,32.22,14.32-10.89-4.84-21.81-9.7-32.22-14.32Z"/><path d="M251.16,141.17c16.68-.11,30.57,2.66,39.19,17.46,2.76,4.73,6.52,8.87,10.03,13.57-8.19,0-15.95,.66-23.55-.16-10.16-1.1-16.49-7.97-20.59-16.85-1.98-4.28-3.25-8.89-5.08-14.01Z"/><path d="M230.89,239.53c6.47,1.25,13.22,1.75,19.32,4.01,4.23,1.56,8.58,4.87,11.06,8.61,4.49,6.75,7.61,14.4,11.9,22.84-14.25-4.27-29.44-3.55-37.53-17.58-2.85-4.95-4.32-10.69-6.41-16.07,.55-.6,1.11-1.2,1.66-1.8Z"/><path d="M506.36,68.18c2.38,5.16,4.66,10.06,6.92,14.97,6.5,14.19,3.68,30.02-6.88,38.71-16.81-14.51-16.82-41.07-.04-53.69Zm-3.96,20.62l-1.31,.25c1.53,8.47,3.06,16.93,4.58,25.4l1.94-.38c-1.74-8.42-3.48-16.85-5.21-25.27Z"/><path d="M452.81,158.25c0-9.33-.78-18.75,.22-27.97,1.02-9.47,8.56-14.64,16.34-18.87,.66-.36,2.98,1.11,3.67,2.24,7.35,12.15,6.27,22.11-4.26,33.64-4.07,4.45-9.22,7.92-13.88,11.84l-2.08-.88Zm12.96-28.14c-.44-.15-.88-.31-1.33-.46l-8.14,22.24,1.62,.56c2.62-7.45,5.23-14.89,7.85-22.34Z"/><path d="M452.44,106.11c-6.74-2.34-13.32-4.14-19.48-6.87-11.2-4.96-15.12-15.1-17.84-26.13,22.3-3.05,36.83,8.2,37.32,33Z"/><path d="M211.01,201.4c-28.19-7.95-37.83-17.91-36.28-36.84,12.34-1.43,25.6,6.89,29.57,18.43,2.04,5.95,4.31,11.83,6.71,18.41Z"/><path d="M290.3,128.74c-14.28,9.88-41.13-4.23-45.28-23.17,8.1,.53,16.3,.84,24.44,1.67,6.81,.69,11.73,4.73,15.15,10.46,2.13,3.56,3.82,7.38,5.69,11.04Zm-21.47-10.15c7.45,6.51,14.33,9.43,19.8,8.56-6.98-3.02-13.39-5.79-19.8-8.56Z"/><path d="M161.63,326.78c-19.37,15.34-32.07,15.16-46.84-.34,10.71-12.39,22.07-15.37,34.98-6.71,3.69,2.48,7.64,4.56,11.86,7.05Zm-18.41,.74l.15,1.25c4.99-.42,9.97-.84,14.96-1.26l-.1-1.25c-5,.42-10,.84-15,1.26Z"/><path d="M307.86,127.96c-7.62-6.15-13.95-13.13-13.75-23.53,.21-10.81,7.79-16.97,15.58-22.78,7.57,6.95,9.86,20.06,5.47,29.98-2.32,5.23-4.67,10.45-7.3,16.33Zm-.98-26.17h-.9v18.36h.9v-18.36Z"/><path d="M145.33,214.25c6.85,0,13.33-.49,19.69,.15,5.41,.55,9.71,3.88,12.82,8.46,3.47,5.12,6.92,10.25,10.41,15.43-6.56-.31-12.74-.48-18.9-.9-12.38-.85-21.77-9.59-24.03-23.13Z"/><path d="M473.69,111.48c-14.91-17.56-12.01-32.95,7.9-42.11,9.94,16.32,.22,28.95-7.9,42.11Z"/><path d="M649.53,196.34c-3.68,13.38-19.79,24.98-33.3,23.84-5.53-.46-6.54-1.78-5.42-7.06,2.29-10.77,10.24-16.51,21.24-16.03,5.82,.25,11.68-.48,17.48-.76Zm-37.98,20.49l.87,1.55c4.96-2.82,9.92-5.63,14.88-8.45l-.75-1.33c-5,2.74-10,5.49-15,8.23Z"/><path d="M561.33,173.02c3.53-5.08,6.84-9.85,10.16-14.62-.33-.25-.67-.51-1-.76-3.02,4.11-6.03,8.21-8.99,12.24-3.36-15.57,5.16-27,22.81-30.44,5.85,18.94-1.5,30.15-22.97,33.59Z"/><path d="M586.49,416.85c22.19,8.89,28.89,17.69,26.33,34.48-8.41,1.59-19.98-5.3-22.55-13.45-.37-1.18-.65-2.4-.86-3.63-.99-5.78-1.94-11.56-2.92-17.4Z"/><path d="M644.11,321.21c4.79-3.03,9.07-5.8,13.41-8.46,10.45-6.41,20.19-4.9,28.73,4.4-9.59,14.37-21.9,15.65-42.14,4.07Z"/><path d="M666.64,243.33c-2.67,12.64-25.09,31.65-36.64,22.77,1.75-4.11,3.31-8.61,5.53-12.75,2.59-4.85,7.12-7.23,12.52-7.89,6.1-.74,12.22-1.41,18.59-2.14Zm-20.52,14.09l-.85-1.21c-4.24,2.95-8.48,5.9-12.73,8.86,.33,.47,.65,.93,.98,1.4,4.2-3.01,8.4-6.03,12.59-9.04Z"/><path d="M159.87,350.54c-4,18.1-21.43,25.12-35.87,13.92,2.32-2.99,4.55-6.08,6.99-8.98,4.06-4.82,9.2-7.13,15.61-6.34,4.41,.55,8.85,.93,13.27,1.39Zm-2.21,2.87l-.71-1.28c-4.62,2.24-9.24,4.49-13.87,6.73l.55,1.17c4.67-2.21,9.35-4.41,14.02-6.62Z"/><path d="M208.35,442.95c0-5.91-.61-11.99,.13-17.9,1.31-10.43,7.8-16.95,18.44-19.67-.44,7.36-.41,14.74-1.47,21.95-.84,5.76-7.62,13.96-17.11,15.62Z"/><path d="M387.93,103.45c-6.87-18.54-1.1-31.54,15.67-35.36,4.28,18.35-.74,25.88-15.67,35.36Z"/><path d="M671.11,281.41c-3.13,18.8-17.57,20.98-32.63,22.08,3.57-17.75,19.02-28.21,32.63-22.08Z"/><path d="M224.54,213.25c-10.08,11.85-27.61,15.96-37.08-1.25,8.23-7.59,16.13-8.83,25.84-4.1,3.72,1.81,7.48,3.57,11.25,5.36Z"/><path d="M132.75,289.33c7.68,.43,14.68,.25,21.48,1.33,9.79,1.55,13.49,9.38,16.34,17.71-10.7,4.94-28.31-3.69-37.82-19.04Z"/><path d="M225.42,236.38c-9.69,15.47-22.07,18.82-35.06,7.63,8.12-12.79,16.76-14.71,35.06-7.63Z"/><path d="M511.68,205.91c4.45-18.48,12.86-24.29,29.39-20.57-.85,13.68-11.82,21.44-29.39,20.57Z"/><path d="M520.46,293.64c-8.54,8.29-20.11,8.45-30.55,11.77-1.73-7.08,2.07-14.81,8.55-17.92,6.53-3.13,17.06-.19,22,6.15Z"/><path d="M162.36,257.54c-14.54,8.37-27.09,3.29-30.52-12.06,10.37-4.14,18.94-.8,30.52,12.06Z"/><path d="M227.21,127.28c13.38,5.83,15.64,11.39,11.71,28.13-14.47-5.23-19.17-17.35-11.71-28.13Z"/><path d="M416.9,162.53c7.51,12.62,4.27,20.73-10.38,25.64,.11-.72,.22-1.37,.46-2.89-1.09,1.33-1.72,2.08-2.34,2.84-4.61-3.82,3.85-21.44,12.26-25.59Z"/></svg>