<?xml version="1.0" standalone="no"?>
<!DOCTYPE svg PUBLIC "-//W3C//DTD SVG 20010904//EN"
 "http://www.w3.org/TR/2001/REC-SVG-20010904/DTD/svg10.dtd">
<svg version="1.0" xmlns="http://www.w3.org/2000/svg"
 width="1024.000000pt" height="1024.000000pt" viewBox="0 0 1024.000000 1024.000000"
 preserveAspectRatio="xMidYMid meet">

<g transform="translate(0.000000,1024.000000) scale(0.100000,-0.100000)"
fill="#000000" stroke="none">
<path d="M5078 9293 c-167 -139 -304 -344 -364 -548 -38 -130 -45 -336 -16
-450 41 -163 94 -265 185 -355 43 -44 144 -116 151 -109 9 9 46 340 50 444 5
114 3 107 -14 -60 -21 -197 -44 -365 -51 -365 -4 0 -35 21 -68 46 -107 80
-189 207 -233 361 -20 67 -23 100 -22 233 1 138 4 165 28 244 59 196 143 334
292 484 56 56 101 102 99 102 -2 0 -18 -12 -37 -27z"/>
<path d="M5199 9260 c133 -114 259 -303 314 -470 38 -114 50 -185 51 -300 2
-256 -117 -505 -299 -622 l-60 -39 -7 23 c-4 13 -14 84 -22 158 -19 168 -45
372 -51 385 -9 25 -3 -44 19 -225 14 -107 28 -230 32 -272 8 -95 14 -97 110
-29 85 60 152 141 204 246 61 122 84 226 84 370 0 221 -69 420 -209 610 -56
75 -205 225 -224 225 -6 0 20 -27 58 -60z"/>
<path d="M3560 8732 c8 -5 38 -12 66 -16 28 -3 91 -20 139 -36 268 -91 514
-296 624 -523 54 -108 71 -179 77 -312 5 -90 2 -124 -14 -185 -23 -87 -22
-102 3 -33 29 79 32 259 6 366 -23 97 -80 219 -139 299 -50 67 -160 175 -236
232 -114 85 -331 184 -438 201 -23 3 -56 8 -73 11 -21 3 -25 2 -15 -4z"/>
<path d="M6695 8717 c19 -15 20 -27 19 -209 0 -138 -5 -217 -17 -278 -51 -258
-156 -448 -317 -574 -110 -86 -214 -129 -350 -147 -121 -15 -121 -16 -9 144
130 188 219 321 254 382 44 77 17 45 -50 -61 -33 -52 -118 -178 -189 -280 -70
-102 -126 -188 -122 -191 16 -16 108 -13 190 6 242 58 447 248 543 502 56 150
75 254 80 449 5 201 -3 263 -32 268 -20 4 -20 4 0 -11z"/>
<path d="M3536 8683 c-11 -71 -6 -298 9 -393 40 -244 127 -424 277 -572 115
-113 243 -178 396 -199 121 -17 123 -14 45 99 -37 53 -83 120 -103 147 -20 28
-83 120 -140 205 -102 155 -134 197 -110 150 15 -29 217 -328 325 -480 41 -58
74 -109 75 -113 1 -21 -183 16 -266 53 -269 121 -447 393 -494 753 -12 95 -13
298 -1 350 5 20 5 37 1 37 -4 0 -10 -17 -14 -37z"/>
<path d="M6513 8685 c-235 -79 -438 -217 -565 -384 -106 -141 -178 -339 -178
-491 1 -76 18 -200 30 -215 5 -6 7 -15 3 -18 -3 -4 -2 -7 4 -7 5 0 70 73 143
161 74 89 177 206 230 260 52 55 91 99 87 99 -17 0 -194 -193 -356 -388 -52
-62 -98 -109 -102 -105 -13 13 -29 191 -23 263 11 135 60 271 142 392 95 139
275 290 436 363 72 33 241 91 286 98 22 4 21 4 -5 5 -16 1 -76 -14 -132 -33z"/>
<path d="M3981 8095 c13 -16 58 -66 100 -110 100 -106 138 -149 243 -277 79
-97 110 -131 90 -95 -23 39 -265 317 -353 407 -57 58 -93 92 -80 75z"/>
<path d="M2390 7950 c-12 -7 -16 -38 -18 -143 -9 -327 79 -599 251 -777 95
-98 237 -183 362 -215 61 -16 260 -21 282 -7 6 4 -37 6 -96 4 -128 -5 -198 10
-316 67 -268 129 -425 374 -465 726 -11 103 -12 241 -2 300 7 37 10 40 47 46
l40 6 -35 1 c-19 1 -42 -3 -50 -8z"/>
<path d="M2480 7952 c0 -5 41 -12 90 -16 154 -12 351 -71 465 -140 177 -107
315 -267 369 -430 24 -69 46 -192 46 -250 0 -60 -30 -226 -41 -226 -4 0 -48
46 -97 103 -50 56 -150 161 -223 232 l-133 130 150 -156 c82 -86 183 -195 224
-242 41 -47 78 -86 82 -86 18 -2 48 156 48 252 0 119 -43 269 -111 384 -46 78
-178 214 -261 269 -131 87 -327 155 -489 169 -41 3 -84 8 -96 11 -13 2 -23 0
-23 -4z"/>
<path d="M7645 7945 c-267 -37 -453 -118 -607 -263 -106 -101 -204 -253 -223
-347 -3 -16 5 -3 18 30 115 284 362 480 697 550 83 17 295 39 313 32 20 -7 29
-169 17 -294 -40 -423 -260 -731 -587 -821 -98 -27 -313 -29 -313 -2 0 4 72
105 161 226 89 120 168 233 176 249 20 40 6 24 -52 -60 -27 -38 -107 -148
-177 -242 -70 -95 -128 -177 -128 -182 0 -25 224 -28 319 -5 295 73 514 328
593 692 26 120 32 408 9 436 -16 19 -84 20 -216 1z"/>
<path d="M5018 7524 c-32 -7 -77 -23 -100 -35 -66 -34 -154 -129 -191 -206
-30 -64 -32 -75 -32 -179 0 -107 1 -112 38 -186 52 -106 150 -190 257 -221 13
-4 15 -59 12 -436 l-2 -432 -73 66 c-210 192 -491 340 -669 352 -76 6 -77 5
-108 -26 -26 -26 -31 -37 -25 -59 10 -42 34 -60 131 -96 220 -82 403 -211 526
-373 97 -126 139 -234 159 -403 12 -108 6 -675 -9 -789 l-7 -55 -85 100 c-154
180 -440 484 -788 836 l-343 346 25 39 c41 63 59 144 54 243 -5 112 -44 196
-128 280 -233 233 -617 120 -697 -205 -32 -130 13 -290 107 -386 127 -128 318
-164 482 -92 l37 16 94 -99 c280 -296 537 -581 537 -594 0 -4 -24 -1 -52 7
-74 20 -198 22 -232 4 -48 -26 -47 -99 2 -125 15 -8 56 -20 91 -26 260 -47
469 -213 599 -475 66 -134 95 -228 147 -485 l8 -34 -39 29 c-70 54 -167 115
-254 159 -84 43 -233 96 -270 96 -13 0 -21 9 -25 28 -23 112 -79 220 -144 275
-113 95 -248 128 -381 93 -313 -82 -424 -479 -198 -705 197 -198 528 -163 663
68 28 48 32 51 60 46 39 -7 157 -68 215 -110 73 -53 184 -176 228 -251 50 -85
97 -219 118 -333 22 -119 29 -445 15 -610 -33 -376 -127 -702 -263 -912 -178
-277 -485 -460 -845 -504 -101 -13 -136 -77 -65 -118 45 -26 224 -34 388 -18
285 29 632 137 851 267 l72 42 7 -31 c13 -61 8 -249 -10 -315 -19 -70 -12 -98
29 -108 83 -21 260 131 383 328 23 37 42 72 42 78 0 15 1 15 123 -44 204 -99
444 -167 707 -202 165 -21 405 -16 444 9 30 20 36 66 11 91 -17 16 -77 36
-111 36 -41 0 -228 52 -311 87 -174 73 -361 223 -460 368 -102 151 -181 358
-232 614 -47 232 -56 331 -55 631 0 243 2 286 21 371 71 319 233 520 506 628
43 17 79 31 81 31 2 0 18 -24 35 -54 120 -213 398 -282 594 -148 208 144 255
412 104 610 -78 103 -185 160 -317 169 -97 7 -166 -12 -252 -70 -78 -52 -129
-125 -161 -227 -22 -69 -26 -75 -53 -78 -128 -13 -374 -137 -509 -256 -21 -20
-40 -34 -42 -33 -4 4 36 185 58 265 62 222 192 433 333 538 102 77 204 123
331 150 108 23 145 75 91 129 -34 34 -85 40 -200 23 -56 -8 -103 -14 -105 -12
-9 8 180 237 409 493 85 96 167 188 181 205 l27 30 59 -27 c134 -60 250 -61
368 -3 133 66 214 176 234 319 32 229 -126 445 -350 477 -225 32 -424 -108
-470 -330 -17 -84 -7 -184 26 -259 19 -42 26 -67 19 -76 -5 -7 -119 -132 -254
-277 -350 -377 -665 -745 -824 -962 l-51 -69 -7 34 c-14 68 -30 447 -23 564
12 220 59 371 160 521 97 143 232 257 412 348 51 25 97 55 103 65 18 34 12 68
-17 91 -23 18 -37 21 -79 17 -93 -10 -248 -85 -390 -190 -82 -60 -223 -198
-252 -245 -14 -24 -22 -30 -28 -21 -4 7 -9 249 -12 538 l-5 526 66 28 c237
102 327 375 201 602 -61 107 -186 195 -309 215 -75 12 -96 12 -167 -6z"/>
<path d="M7179 7257 c-96 -92 -173 -174 -283 -300 -33 -37 -63 -67 -67 -67 -3
0 -13 28 -20 63 -15 64 -17 175 -6 287 5 53 4 59 -5 35 -6 -16 -11 -88 -12
-160 -1 -102 3 -143 18 -190 l18 -60 96 105 c53 58 158 167 234 243 155 154
174 185 27 44z"/>
<path d="M2953 7295 c34 -66 336 -484 350 -485 4 0 -44 69 -106 153 -62 83
-141 195 -176 247 -70 104 -92 131 -68 85z"/>
<path d="M3917 7158 c-61 -45 -121 -178 -132 -294 -14 -135 34 -269 131 -366
67 -68 129 -102 230 -128 123 -32 156 -15 175 85 15 79 5 198 -26 320 -41 161
-125 287 -252 376 -49 34 -87 36 -126 7z m124 -17 c112 -71 217 -237 253 -403
31 -140 23 -319 -15 -354 -50 -45 -241 15 -345 109 -93 84 -154 249 -138 375
18 149 108 302 178 302 12 0 42 -13 67 -29z"/>
<path d="M6098 7067 c-100 -46 -226 -177 -279 -292 -43 -92 -59 -168 -59 -280
1 -121 10 -168 56 -262 34 -72 35 -73 73 -73 116 0 237 50 319 132 102 101
145 208 145 363 -1 153 -58 331 -131 408 -31 33 -60 34 -124 4z m117 -14 c39
-41 72 -111 101 -213 23 -80 26 -104 21 -203 -3 -91 -9 -124 -31 -177 -67
-166 -204 -267 -388 -287 l-58 -6 -34 74 c-109 236 -58 517 128 702 70 70 176
137 217 137 10 0 30 -12 44 -27z"/>
<path d="M1760 6864 c-14 -2 -59 -9 -100 -15 -79 -11 -166 -35 -175 -48 -9
-15 35 -152 79 -245 125 -268 326 -447 576 -513 99 -26 272 -23 378 6 46 13
81 25 79 28 -3 2 -42 -6 -87 -18 -105 -27 -266 -29 -358 -6 -147 39 -272 110
-384 221 -118 115 -222 307 -268 493 -7 30 -6 33 24 42 141 45 375 54 525 22
295 -65 505 -260 558 -518 10 -45 15 -85 11 -88 -3 -3 -52 17 -108 45 -56 28
-104 50 -106 48 -2 -2 48 -29 111 -61 l115 -57 0 37 c0 52 -28 159 -57 218
-117 233 -336 373 -638 405 -90 10 -128 10 -175 4z"/>
<path d="M8242 6849 c-310 -52 -551 -279 -607 -574 -8 -38 -12 -71 -11 -73 3
-3 47 15 168 70 27 12 46 23 44 26 -3 2 -46 -15 -96 -38 -51 -22 -95 -38 -98
-35 -4 3 4 45 16 93 81 315 344 511 708 529 153 8 394 -34 394 -68 0 -4 -16
-51 -35 -104 -159 -440 -496 -685 -874 -636 -94 12 -163 31 -168 47 -2 6 74
56 169 113 200 119 329 203 324 209 -3 2 -31 -14 -63 -36 -62 -41 -170 -108
-216 -131 -60 -32 -239 -148 -241 -157 -2 -18 135 -55 227 -61 233 -15 443 71
618 254 41 43 96 113 123 156 51 81 133 272 143 330 5 33 3 35 -38 51 -109 40
-351 58 -487 35z"/>
<path d="M8135 6435 c-16 -8 -50 -23 -75 -33 -123 -53 -177 -77 -195 -89 -31
-20 -13 -15 56 16 35 15 108 47 162 71 53 24 97 45 97 46 0 7 -14 3 -45 -11z"/>
<path d="M2151 6426 c10 -10 231 -107 236 -102 2 2 -45 25 -104 51 -125 55
-140 61 -132 51z"/>
<path d="M2150 6376 c127 -86 465 -292 456 -277 -3 5 -27 22 -54 37 -26 15
-76 46 -112 69 -157 101 -310 195 -317 195 -4 0 8 -11 27 -24z"/>
<path d="M1775 5646 c-112 -30 -184 -61 -277 -122 -80 -51 -207 -169 -239
-221 l-21 -33 31 -38 c66 -84 199 -189 313 -248 305 -157 710 -113 937 101 40
38 79 81 86 96 l14 26 -82 7 c-45 3 -116 8 -157 11 l-75 4 70 -9 c39 -5 105
-12 147 -15 l78 -7 -14 -27 c-20 -38 -101 -111 -172 -154 -333 -201 -780 -135
-1077 159 -38 37 -72 75 -77 84 -13 25 64 117 163 196 104 82 234 147 362 180
89 23 114 25 230 21 153 -6 218 -21 342 -82 69 -34 110 -63 161 -113 59 -58
109 -128 99 -138 -2 -2 -124 -8 -273 -14 -148 -6 -289 -15 -314 -20 l-45 -9
55 4 c30 2 176 9 325 15 148 6 271 13 273 15 2 2 -12 27 -30 57 -52 80 -156
170 -251 217 -121 59 -181 72 -347 77 -129 4 -155 2 -235 -20z"/>
<path d="M8120 5664 c-216 -39 -397 -149 -501 -304 l-30 -45 73 -6 c40 -4 134
-6 208 -6 l135 1 -150 6 c-82 4 -171 8 -198 9 l-48 1 15 28 c48 93 194 205
336 258 152 57 356 69 504 29 88 -23 219 -88 297 -146 66 -48 219 -203 219
-220 0 -5 -29 -40 -65 -78 -139 -147 -325 -244 -539 -282 -78 -13 -297 -7
-361 11 -153 43 -292 122 -363 207 -48 58 -52 73 -19 74 17 1 18 2 4 6 -10 3
-25 2 -33 -1 -21 -8 -4 -36 59 -103 89 -95 221 -163 381 -198 97 -22 327 -16
421 9 77 22 201 75 272 118 130 78 260 209 248 248 -10 30 -171 189 -235 231
-89 59 -167 97 -254 125 -67 22 -104 27 -216 29 -74 2 -146 2 -160 -1z"/>
<path d="M8065 5290 c33 -4 78 -8 100 -8 34 1 32 2 -15 8 -30 5 -75 8 -100 8
-41 -1 -40 -2 15 -8z"/>
<path d="M2098 5243 c12 -2 32 -2 45 0 12 2 2 4 -23 4 -25 0 -35 -2 -22 -4z"/>
<path d="M3113 5235 c-78 -21 -130 -51 -191 -109 -67 -63 -77 -85 -57 -131 44
-107 178 -205 328 -240 80 -19 215 -19 297 1 76 17 198 75 229 108 20 22 21
24 6 66 -51 143 -187 262 -350 304 -73 19 -192 20 -262 1z m309 -28 c132 -50
215 -123 277 -245 29 -56 26 -77 -12 -106 -123 -94 -331 -130 -501 -86 -139
35 -252 115 -300 212 -25 49 -25 53 -10 77 100 158 344 224 546 148z"/>
<path d="M7847 5232 c-92 -8 -165 -17 -163 -20 5 -5 453 26 471 33 24 8 -153
1 -308 -13z"/>
<path d="M2208 5233 c18 -2 45 -2 60 0 15 2 0 4 -33 4 -33 0 -45 -2 -27 -4z"/>
<path d="M6905 5189 c-165 -16 -305 -111 -379 -257 -14 -28 -26 -60 -26 -71 0
-26 48 -64 133 -105 175 -84 399 -71 557 33 57 38 147 140 157 179 8 31 -19
66 -95 124 -100 76 -220 110 -347 97z m155 -19 c71 -16 120 -40 191 -93 91
-67 99 -84 66 -140 -35 -60 -125 -140 -193 -172 -169 -80 -389 -65 -551 37
-72 45 -72 47 -31 135 81 172 315 277 518 233z"/>
<path d="M2713 4560 c-249 -37 -464 -200 -575 -436 -25 -53 -78 -221 -78 -246
0 -14 60 -38 147 -60 69 -17 118 -22 228 -22 168 0 275 23 400 87 144 74 287
240 316 367 7 32 7 33 -7 16 -8 -11 -14 -26 -14 -33 0 -20 -32 -83 -72 -144
-137 -208 -440 -318 -753 -275 -143 19 -219 45 -223 75 -6 36 46 200 85 271
126 232 347 375 596 388 150 7 247 -20 346 -98 58 -46 66 -46 19 0 -45 43
-138 86 -226 105 -78 16 -107 17 -189 5z"/>
<path d="M7327 4544 c-32 -7 -82 -26 -112 -40 -54 -27 -125 -84 -125 -100 0
-5 37 -25 83 -46 45 -20 154 -71 242 -113 88 -42 156 -72 150 -66 -14 13 -101
59 -155 81 -85 35 -285 133 -292 144 -20 31 110 107 224 130 96 20 174 20 256
1 285 -67 492 -290 556 -598 l14 -69 -30 -10 c-16 -6 -27 -13 -24 -16 7 -7 66
18 66 29 0 45 -55 220 -93 294 -143 282 -475 448 -760 379z"/>
<path d="M3040 4370 c-36 -16 -116 -50 -178 -76 -62 -25 -111 -49 -108 -51 3
-3 31 7 63 22 32 15 81 35 108 45 100 37 220 90 200 89 -11 0 -49 -13 -85 -29z"/>
<path d="M3005 4261 c-219 -64 -307 -92 -303 -96 3 -4 33 4 292 79 88 26 162
49 165 51 10 11 -31 2 -154 -34z"/>
<path d="M7095 4258 c24 -109 108 -240 200 -311 28 -21 91 -59 140 -83 121
-58 234 -78 405 -71 112 4 269 31 256 44 -3 3 -38 -3 -78 -13 -99 -26 -341
-26 -443 -1 -165 41 -321 149 -403 280 -36 58 -70 153 -58 165 6 5 26 0 245
-68 73 -22 138 -39 144 -37 6 2 -18 11 -54 21 -35 10 -120 36 -187 58 -68 22
-135 42 -149 44 -23 4 -24 3 -18 -28z"/>
<path d="M2683 4217 c-24 -11 -43 -24 -43 -28 0 -6 81 33 99 48 13 10 -20 -1
-56 -20z"/>
</g>
</svg>
