<?xml version="1.0" encoding="utf-8"?>
<!-- Generator: Adobe Illustrator 27.1.0, SVG Export Plug-In . SVG Version: 6.00 Build 0)  -->
<svg version="1.1" id="Layer_1" xmlns:serif="http://www.serif.com/"
	 xmlns="http://www.w3.org/2000/svg" xmlns:xlink="http://www.w3.org/1999/xlink" x="0px" y="0px" viewBox="0 0 456 456"
	 style="enable-background:new 0 0 456 456;" xml:space="preserve">
<style type="text/css">
	.st0{fill:#FFFFFF;}
	.st1{fill:url(#SVGID_1_);}
	.st2{fill:url(#SVGID_00000052791782931764903330000002972250233402811787_);}
	.st3{fill:url(#SVGID_00000173847499892284862020000001559144663861203627_);}
	.st4{fill:url(#SVGID_00000119085266644770884810000004883173550481482932_);}
	.st5{fill:url(#SVGID_00000118391609481479606060000007671201964002522256_);}
	.st6{fill:url(#SVGID_00000152263425936339081370000001232436299220731020_);}
	.st7{fill:url(#SVGID_00000039814763264525459540000003880120061106390697_);}
	.st8{fill:url(#SVGID_00000094592789740461220670000004630698789739220388_);}
	.st9{fill:url(#SVGID_00000050620571837309523500000013259871306030912414_);}
	.st10{fill:url(#SVGID_00000007416389483329660950000013860156645116484005_);}
	.st11{fill:url(#SVGID_00000096050689861696955510000014568903155502477702_);}
	.st12{fill:url(#SVGID_00000070816950965042782760000014141611895465588629_);}
	.st13{fill:#1A73E8;}
	.st14{fill:#333942;}
</style>
<g>
	<circle class="st0" cx="225.5" cy="155.2" r="103.3"/>
	<g>
		
			<linearGradient id="SVGID_1_" gradientUnits="userSpaceOnUse" x1="241.0736" y1="72.3713" x2="263.374" y2="-52.0791" gradientTransform="matrix(1 0 0 -1 0 124)">
			<stop  offset="0" style="stop-color:#E9D700"/>
			<stop  offset="0.4975" style="stop-color:#FF8E00"/>
			<stop  offset="1" style="stop-color:#FF2F15"/>
		</linearGradient>
		<path class="st1" d="M325.3,128.9c-17-23.1-33.5,0.2-40.2,8.7c-6.9,8.9-12.7,12.4-19.2,2.6c-6.5-9.9-16.1-28.3-22.3-39.8
			c-12-23.8-35.2-53.8-70.6-35.9c12.2-6.8,25.9-11.3,40.4-12.8c3.5-0.3,7-0.5,10.7-0.5c4.5,0,8.8,0.3,13,0.8
			c26.8,3.3,50.5,16.8,66.9,36.4c4.5,5.2,8.4,11,11.7,17.1C319.9,112.8,323.2,120.6,325.3,128.9z"/>
		
			<linearGradient id="SVGID_00000046297655271166032820000016002143447041519278_" gradientUnits="userSpaceOnUse" x1="165.1246" y1="-126.8167" x2="312.8353" y2="-1.1664" gradientTransform="matrix(1 0 0 -1 0 124)">
			<stop  offset="0" style="stop-color:#00F4FF"/>
			<stop  offset="0.4975" style="stop-color:#00B1FF"/>
			<stop  offset="1" style="stop-color:#176FE9"/>
		</linearGradient>
		<path style="fill:url(#SVGID_00000046297655271166032820000016002143447041519278_);" d="M325.3,182.5
			c-7.8,28.5-27,52.2-52.6,65.7c-7.5,3.9-15.5,7-23.9,9c-7.9,1.9-16.2,3-24.7,3c-13,0-25.5-2.4-37.1-6.8
			c-12.9-4.8-24.4-12.2-34.2-21.3c-11.9-11-21.1-24.8-26.8-40.2c21.6,48.3,69.8,45.8,82,1.6c3.4-11.3,5.6-31,11.3-47.3
			c8.5-24,18.9-4.1,30.9,19.4c12,23.5,27.1,27.2,43.4,1.1C309.9,140.5,331.2,160.9,325.3,182.5z"/>
		
			<linearGradient id="SVGID_00000111878490928474126510000013013506866347482765_" gradientUnits="userSpaceOnUse" x1="188.0506" y1="67.8554" x2="164.0715" y2="-183.4473" gradientTransform="matrix(1 0 0 -1 0 124)">
			<stop  offset="0" style="stop-color:#AE24FE"/>
			<stop  offset="0.4926" style="stop-color:#662AED"/>
			<stop  offset="1" style="stop-color:#0026BF"/>
		</linearGradient>
		<path style="fill:url(#SVGID_00000111878490928474126510000013013506866347482765_);" d="M243.6,100.4c-0.2-0.3-0.3-0.6-0.5-1
			c-9.2-16.4-17.9-19.7-29.2-8.7c-1.1,1.1-2.4,2.5-3.8,4.1c-4.1,4.5-9.3,10.9-14.8,18.3c-11.8,16-24.8,36.7-31,54.3
			c-4.3,12.1-3.1,22.6,0.7,30.5c2.4,4.7,5.7,8.4,9.4,11l0,0c11.5,7.9,27.6,4.7,33.7-15.6c-12.2,44.3-60.3,46.7-82-1.3
			c-0.1-0.1-0.1-0.2-0.1-0.2c0-0.1-0.1-0.1-0.1-0.1c-1.7-4.7-3.1-9.5-4.2-14.5c0-0.1,0-0.1-0.1-0.2v-0.1c-1.2-5.9-1.9-11.9-2.2-18.1
			l0,0c-0.1-1.1-0.1-2.3-0.1-3.5c0-25.9,9.4-49.6,25-67.8l0.1-0.1c5.5-6.4,11.7-12.1,18.5-17.1l0,0c3.1-2.3,6.3-4.3,9.6-6.1l0.2-0.1
			c34.8-17.6,58.1,11.3,70.1,35C243.4,99.7,243.5,100,243.6,100.4z"/>
		
			<linearGradient id="SVGID_00000047026632986537918550000002997947012886077058_" gradientUnits="userSpaceOnUse" x1="165.316" y1="-157.2158" x2="313.0276" y2="-31.5647" gradientTransform="matrix(1 0 0 -1 0 124)">
			<stop  offset="0" style="stop-color:#00F4FF"/>
			<stop  offset="0.4975" style="stop-color:#00B1FF"/>
			<stop  offset="1" style="stop-color:#176FE9"/>
		</linearGradient>
		<path style="fill:url(#SVGID_00000047026632986537918550000002997947012886077058_);" d="M306.3,209
			c-6.5,15.4-12.7,24.8-33.5,39.3c-7.5,3.9-15.5,7-23.9,9c-7.9,1.9-16.2,3-24.7,3c-13,0-25.5-2.4-37.1-6.8
			c-12.9-4.8-24.4-12.2-34.2-21.3c38.2,23,72.5,0.7,85.5-30.3c7.1-17,12.5-6.5,18.7-1.5c6.2,5,13.6,9.9,28.1-2.6
			C299.5,185.3,312.9,192.9,306.3,209z"/>
		
			<linearGradient id="SVGID_00000018943837082932388650000010160982797053935770_" gradientUnits="userSpaceOnUse" x1="150.5885" y1="-190.6599" x2="298.3" y2="-65.0087" gradientTransform="matrix(1 0 0 -1 0 124)">
			<stop  offset="0" style="stop-color:#00F4FF"/>
			<stop  offset="0.4975" style="stop-color:#00B1FF"/>
			<stop  offset="1" style="stop-color:#176FE9"/>
		</linearGradient>
		<path style="fill:url(#SVGID_00000018943837082932388650000010160982797053935770_);" d="M272.7,235.4c-5,8.9-8.9,16.1-23.7,21.9
			c-7.9,1.9-16.2,3-24.7,3c-13,0-25.5-2.4-37.1-6.8c14.3,1.7,41.5,1.7,64.2-23.3C268.2,211.5,279,224.3,272.7,235.4z"/>
		
			<linearGradient id="SVGID_00000041275321314304412740000012985168424482907533_" gradientUnits="userSpaceOnUse" x1="180.4337" y1="98.201" x2="156.4548" y2="-153.1002" gradientTransform="matrix(1 0 0 -1 0 124)">
			<stop  offset="0" style="stop-color:#AE24FE"/>
			<stop  offset="0.4926" style="stop-color:#662AED"/>
			<stop  offset="1" style="stop-color:#0026BF"/>
		</linearGradient>
		<path style="fill:url(#SVGID_00000041275321314304412740000012985168424482907533_);" d="M174.5,209L174.5,209
			c-3.8-2.6-7.1-6.3-9.4-11c-27,20-42-17.8-43.1-20.6c1,5,2.4,9.9,4.2,14.5c0,0,0,0,0.1,0.1c0,0.1,0.1,0.1,0.1,0.2
			c21.6,48,69.6,45.5,82,1.3C202,213.7,186,216.7,174.5,209z"/>
		
			<linearGradient id="SVGID_00000106131292175061078450000017500989296319499914_" gradientUnits="userSpaceOnUse" x1="145.6396" y1="27.5485" x2="121.6606" y2="-223.7539" gradientTransform="matrix(1 0 0 -1 0 124)">
			<stop  offset="0" style="stop-color:#AE24FE"/>
			<stop  offset="0.4926" style="stop-color:#662AED"/>
			<stop  offset="1" style="stop-color:#0026BF"/>
		</linearGradient>
		<path style="fill:url(#SVGID_00000106131292175061078450000017500989296319499914_);" d="M162.7,102
			c-11.2,12.8-22.6,29.7-20.4,53.4c1.7,18.8-19.7,23.9-22.6,3.7l0,0c-0.1-1.1-0.1-2.3-0.1-3.5c0-25.9,9.4-49.6,25-67.8l0.1-0.1
			C158.6,74.4,174.6,88.4,162.7,102z"/>
		
			<linearGradient id="SVGID_00000067956046863401234840000012431080781503084212_" gradientUnits="userSpaceOnUse" x1="208.9419" y1="95.4816" x2="184.9625" y2="-155.8236" gradientTransform="matrix(1 0 0 -1 0 124)">
			<stop  offset="0" style="stop-color:#AE24FE"/>
			<stop  offset="0.4926" style="stop-color:#662AED"/>
			<stop  offset="1" style="stop-color:#0026BF"/>
		</linearGradient>
		<path style="fill:url(#SVGID_00000067956046863401234840000012431080781503084212_);" d="M243.6,100.4c-0.2-0.3-0.3-0.6-0.5-1
			c-9.2-16.4-17.9-19.7-29.2-8.7c-1.1,1.1-2.4,2.5-3.8,4.1c-4.1,4.5-9.3,10.9-14.8,18.3c6.3-30.3-13.1-47.9-31.9-42.4
			c3.1-2.3,6.3-4.3,9.6-6.1l0.2-0.1c34.8-17.6,58.1,11.3,70.1,35C243.4,99.7,243.5,100,243.6,100.4z"/>
		
			<linearGradient id="SVGID_00000116214377670282127470000017514409612746220934_" gradientUnits="userSpaceOnUse" x1="256.3627" y1="92.3562" x2="278.6638" y2="-32.0977" gradientTransform="matrix(1 0 0 -1 0 124)">
			<stop  offset="0" style="stop-color:#E9D700"/>
			<stop  offset="0.4975" style="stop-color:#FF8E00"/>
			<stop  offset="1" style="stop-color:#FF2F15"/>
		</linearGradient>
		<path style="fill:url(#SVGID_00000116214377670282127470000017514409612746220934_);" d="M304.2,88.3
			c-16.5-19.6-40.2-33.1-66.9-36.4c-4.3-0.5-8.7-0.8-13-0.8c-3.7,0-7.2,0.2-10.7,0.5c16.1,4.6,34.2,19.2,51.9,58.8
			c4.7,10.4,12.9,9.2,19.4,2.7c4.7-4.8,17-20,31-7.8C312.6,99.3,308.6,93.5,304.2,88.3z"/>
		
			<linearGradient id="SVGID_00000007410102994902082400000008285876668789748609_" gradientUnits="userSpaceOnUse" x1="259.0851" y1="118.9976" x2="281.3854" y2="-5.4519" gradientTransform="matrix(1 0 0 -1 0 124)">
			<stop  offset="0" style="stop-color:#E9D700"/>
			<stop  offset="0.4975" style="stop-color:#FF8E00"/>
			<stop  offset="1" style="stop-color:#FF2F15"/>
		</linearGradient>
		<path style="fill:url(#SVGID_00000007410102994902082400000008285876668789748609_);" d="M304.2,88.3c-9.4-5.2-16.5-1-21.8,2.6
			c-5.5,3.7-9.8,4.6-14.8-6.8c-9-20.6-20.7-28.8-30.3-32.2C264.1,55.2,287.6,68.7,304.2,88.3z"/>
		
			<linearGradient id="SVGID_00000152258882370781310250000005230278940542026916_" gradientUnits="userSpaceOnUse" x1="188.0859" y1="151.1854" x2="164.1069" y2="-100.1178" gradientTransform="matrix(1 0 0 -1 0 124)">
			<stop  offset="0" style="stop-color:#AE24FE"/>
			<stop  offset="0.4926" style="stop-color:#662AED"/>
			<stop  offset="1" style="stop-color:#0026BF"/>
		</linearGradient>
		<path style="fill:url(#SVGID_00000152258882370781310250000005230278940542026916_);" d="M208.1,193.4
			c-12.2,44.3-60.3,46.7-82-1.3c1.9,3.2,21.8,35.9,48.2,16.9l0,0C186,216.7,202,213.7,208.1,193.4z"/>
		
			<linearGradient id="SVGID_00000155846653136312633160000016995724324561014421_" gradientUnits="userSpaceOnUse" x1="218.3082" y1="148.5092" x2="194.3292" y2="-102.7931" gradientTransform="matrix(1 0 0 -1 0 124)">
			<stop  offset="0" style="stop-color:#AE24FE"/>
			<stop  offset="0.4926" style="stop-color:#662AED"/>
			<stop  offset="1" style="stop-color:#0026BF"/>
		</linearGradient>
		<path style="fill:url(#SVGID_00000155846653136312633160000016995724324561014421_);" d="M243.2,99.4L243.2,99.4
			C234,83,225.3,79.7,214,90.7c-1.1,1.1-2.4,2.5-3.8,4.1c0.5-23.5-23.5-32.4-37.1-30.3l0.2-0.1C208,46.8,231.1,75.7,243.2,99.4z"/>
	</g>
</g>
<g>
	<path class="st13" d="M138.7,292.2v50.6h-10.2v-32.9L115,342.8h-7.7l-13.7-32.9v32.9H83.5v-50.6H95l16.1,37.7l16.1-37.7
		L138.7,292.2L138.7,292.2z"/>
	<path class="st13" d="M179.8,333.1h-20.2l-3.4,9.7h-10.7l18.2-50.7h11.9l18.2,50.7h-10.7L179.8,333.1z M177.1,325l-7.4-21.2
		l-7.4,21.2H177.1z"/>
	<path class="st13" d="M210.7,292.2v31.4c0,3.5,0.9,6.1,2.7,7.9s4.3,2.7,7.6,2.7s5.9-0.9,7.7-2.7c1.8-1.8,2.7-4.4,2.7-7.9v-31.4
		h10.2v31.3c0,4.3-0.9,8-2.8,11c-1.9,3-4.4,5.3-7.5,6.8c-3.2,1.5-6.6,2.3-10.4,2.3c-3.8,0-7.2-0.8-10.3-2.3s-5.5-3.8-7.3-6.8
		s-2.7-6.6-2.7-11v-31.3H210.7z"/>
	<path class="st13" d="M261.4,292.2v50.6h-10.1v-50.6H261.4z"/>
</g>
<g>
	<path class="st13" d="M309.7,342.5l-19.5-22.6v22.6h-8.3V292h8.3v23l19.6-23h10.4l-21.9,25.4l22.3,25.2L309.7,342.5L309.7,342.5z"
		/>
	<path class="st13" d="M336.1,292.1v50.5h-8.3v-50.5H336.1L336.1,292.1z"/>
	<path class="st13" d="M379.6,292.1v6.8h-13.4v43.7h-8.3v-43.7h-13.5v-6.8H379.6z"/>
</g>
<g>
	<path class="st14" d="M94,379.1h-9.7l-1.8,5h-3.1l8-22h3.3l8,22h-3.1L94,379.1z M93.2,376.8l-4-11.2l-4.1,11.2H93.2z"/>
	<path class="st14" d="M115.3,372.9c-1.3,1.2-3.2,1.8-5.8,1.8h-4.3v9.2h-2.9v-22.1h7.1c2.5,0,4.4,0.6,5.7,1.8c1.3,1.2,2,2.8,2,4.7
		C117.1,370.2,116.5,371.7,115.3,372.9z M113,371.4c0.8-0.7,1.1-1.7,1.1-3c0-2.7-1.6-4.1-4.7-4.1h-4.3v8.1h4.3
		C111.1,372.4,112.3,372,113,371.4z"/>
	<path class="st14" d="M133.6,372.9c-1.3,1.2-3.2,1.8-5.8,1.8h-4.3v9.2h-2.9v-22.1h7.1c2.5,0,4.4,0.6,5.7,1.8s2,2.8,2,4.7
		C135.5,370.2,134.9,371.7,133.6,372.9z M131.4,371.4c0.8-0.7,1.1-1.7,1.1-3c0-2.7-1.6-4.1-4.7-4.1h-4.3v8.1h4.3
		C129.4,372.4,130.6,372,131.4,371.4z"/>
	<path class="st14" d="M160.7,363.3c1.8,0.9,3.2,2.2,4.1,3.8c1,1.7,1.4,3.7,1.4,5.9c0,2.3-0.5,4.2-1.4,5.9c-1,1.7-2.3,2.9-4.1,3.8
		s-3.8,1.4-6.3,1.4h-6.9V362h6.9C156.9,361.9,159,362.4,160.7,363.3z M161,379.4c1.5-1.5,2.3-3.6,2.3-6.4s-0.8-4.9-2.3-6.5
		s-3.7-2.3-6.5-2.3h-4.1v17.4h4C157.3,381.6,159.5,380.9,161,379.4z"/>
	<path class="st14" d="M172.9,364.2v7.4h8.1v2.4h-8.1v7.6h9v2.4H170v-22.2h11.9v2.4L172.9,364.2L172.9,364.2z"/>
	<path class="st14" d="M189.4,383.5c-1.1-0.5-2-1.3-2.7-2.2c-0.7-0.9-1-2-1.1-3.2h3.1c0.1,1.1,0.5,1.9,1.3,2.6s1.9,1.1,3.3,1.1
		c1.4,0,2.5-0.4,3.2-1.1c0.8-0.7,1.2-1.6,1.2-2.6c0-0.8-0.2-1.5-0.7-2.1c-0.5-0.5-1.1-0.9-1.7-1.2c-0.7-0.3-1.7-0.6-2.9-0.9
		c-1.4-0.4-2.6-0.8-3.5-1.1c-0.9-0.4-1.7-1-2.3-1.8s-0.9-1.9-0.9-3.3c0-1.2,0.3-2.3,0.9-3.2c0.6-0.9,1.5-1.7,2.6-2.2
		s2.4-0.8,3.8-0.8c2.1,0,3.8,0.5,5.1,1.6c1.4,1.1,2.1,2.4,2.3,4.1h-3.2c-0.1-0.8-0.5-1.6-1.4-2.3c-0.8-0.7-1.8-1-3.1-1
		c-1.2,0-2.2,0.3-2.9,0.9c-0.8,0.6-1.1,1.5-1.1,2.6c0,0.8,0.2,1.4,0.7,2c0.5,0.5,1.1,0.9,1.7,1.1c0.7,0.3,1.6,0.6,2.8,0.9
		c1.4,0.4,2.6,0.8,3.5,1.2c0.9,0.4,1.7,1,2.3,1.8s1,2,1,3.3c0,1.1-0.3,2.1-0.8,3.1c-0.6,1-1.4,1.7-2.6,2.3c-1.1,0.6-2.5,0.9-4,0.9
		C191.8,384.3,190.6,384,189.4,383.5z"/>
	<path class="st14" d="M207.8,361.9V384h-2.9v-22.1H207.8z"/>
	<path class="st14" d="M229.6,368.3c-0.6-1.3-1.5-2.3-2.7-3s-2.6-1.1-4.1-1.1c-1.6,0-2.9,0.4-4.2,1.1s-2.2,1.7-2.9,3.1
		s-1.1,2.9-1.1,4.6s0.4,3.2,1.1,4.6c0.7,1.4,1.7,2.3,2.9,3c1.3,0.7,2.6,1.1,4.2,1.1c2.2,0,3.9-0.7,5.3-2s2.2-3,2.5-5.3h-8.9V372
		h11.9v2.3c-0.2,1.8-0.8,3.5-1.7,5s-2.3,2.7-3.8,3.6c-1.6,0.9-3.4,1.4-5.3,1.4c-2,0-3.9-0.5-5.6-1.4c-1.7-1-3-2.3-4.1-4.1
		c-1-1.7-1.5-3.7-1.5-5.8c0-2.2,0.5-4.1,1.5-5.9s2.3-3.1,4.1-4.1c1.7-1,3.6-1.4,5.6-1.4c2.3,0,4.4,0.6,6.2,1.7c1.8,1.2,3.2,2.8,4,5
		L229.6,368.3L229.6,368.3z"/>
	<path class="st14" d="M254.8,384h-2.9l-11.6-17.6V384h-2.9v-22.2h2.9l11.6,17.6v-17.6h2.9V384L254.8,384z"/>
	<path class="st14" d="M271.3,383.5c-1.1-0.5-2-1.3-2.7-2.2c-0.7-0.9-1-2-1.1-3.2h3.1c0.1,1.1,0.5,1.9,1.3,2.6s1.9,1.1,3.3,1.1
		s2.5-0.4,3.2-1.1c0.8-0.7,1.2-1.6,1.2-2.6c0-0.8-0.2-1.5-0.7-2.1c-0.5-0.5-1.1-0.9-1.7-1.2s-1.7-0.6-2.9-0.9
		c-1.4-0.4-2.6-0.8-3.5-1.1s-1.7-1-2.3-1.8s-0.9-1.9-0.9-3.3c0-1.2,0.3-2.3,0.9-3.2c0.6-0.9,1.5-1.7,2.6-2.2s2.4-0.8,3.8-0.8
		c2.1,0,3.8,0.5,5.1,1.6c1.4,1.1,2.1,2.4,2.3,4.1h-3.2c-0.1-0.8-0.5-1.6-1.4-2.3c-0.8-0.7-1.8-1-3.1-1c-1.2,0-2.2,0.3-2.9,0.9
		c-0.8,0.6-1.1,1.5-1.1,2.6c0,0.8,0.2,1.4,0.7,2c0.5,0.5,1.1,0.9,1.7,1.1c0.7,0.3,1.6,0.6,2.8,0.9c1.4,0.4,2.6,0.8,3.5,1.2
		s1.7,1,2.3,1.8s1,2,1,3.3c0,1.1-0.3,2.1-0.8,3.1c-0.6,1-1.4,1.7-2.6,2.3c-1.1,0.6-2.5,0.9-4,0.9C273.8,384.3,272.5,384,271.3,383.5
		z"/>
	<path class="st14" d="M300.5,361.9v2.3h-6V384h-2.9v-19.8h-6.1v-2.3L300.5,361.9L300.5,361.9z"/>
	<path class="st14" d="M306.9,361.9v14c0,2,0.5,3.5,1.4,4.4c1,1,2.3,1.4,4.1,1.4s3-0.5,4-1.4c1-1,1.4-2.4,1.4-4.4v-14h2.9v14
		c0,1.9-0.4,3.4-1.1,4.7s-1.7,2.2-3,2.8c-1.3,0.6-2.7,0.9-4.3,0.9c-1.6,0-3-0.3-4.3-0.9s-2.3-1.6-3-2.8c-0.8-1.3-1.1-2.8-1.1-4.7
		v-14H306.9z"/>
	<path class="st14" d="M338.7,363.3c1.8,0.9,3.2,2.2,4.1,3.8c1,1.7,1.4,3.7,1.4,5.9c0,2.3-0.5,4.2-1.4,5.9c-1,1.7-2.3,2.9-4.1,3.8
		c-1.8,0.9-3.8,1.4-6.3,1.4h-6.9V362h6.9C334.9,361.9,336.9,362.4,338.7,363.3z M339,379.4c1.5-1.5,2.3-3.6,2.3-6.4
		s-0.8-4.9-2.3-6.5s-3.7-2.3-6.5-2.3h-4v17.4h4C335.2,381.6,337.5,380.9,339,379.4z"/>
	<path class="st14" d="M350.8,361.9V384h-2.9v-22.1H350.8z"/>
	<path class="st14" d="M360.2,382.8c-1.7-1-3-2.3-4.1-4.1c-1-1.7-1.5-3.7-1.5-5.9s0.5-4.1,1.5-5.9s2.3-3.1,4.1-4.1
		c1.7-1,3.6-1.4,5.6-1.4c2.1,0,4,0.5,5.6,1.4c1.7,1,3,2.3,4,4.1s1.4,3.7,1.4,5.9s-0.5,4.1-1.4,5.9c-1,1.7-2.3,3.1-4,4.1
		s-3.6,1.4-5.6,1.4C363.7,384.3,361.9,383.7,360.2,382.8z M370,380.7c1.3-0.8,2.2-1.7,2.9-3.1c0.7-1.4,1.1-2.9,1.1-4.7
		c0-1.8-0.4-3.3-1.1-4.7c-0.7-1.4-1.7-2.3-2.9-3.1c-1.2-0.8-2.6-1.1-4.2-1.1s-3,0.4-4.2,1.1c-1.2,0.8-2.2,1.7-2.9,3.1
		c-0.7,1.4-1.1,2.9-1.1,4.7c0,1.7,0.4,3.3,1.1,4.7c0.7,1.4,1.7,2.3,2.9,3.1c1.3,0.8,2.6,1.1,4.2,1.1
		C367.3,381.7,368.8,381.4,370,380.7z"/>
</g>
</svg>
